<?xml version="1.0" encoding="utf-8"?>
<!-- Uploaded to: SVG Repo, www.svgrepo.com, Generator: SVG Repo Mixer Tools -->
<svg fill="#000000" width="800px" height="800px" viewBox="-6 0 32 32" version="1.1" xmlns="http://www.w3.org/2000/svg">
<title>pointer</title>
<path d="M9.313 5.594v1.313h-2.656v-1.313h2.656zM9.313 10.906v-4h1.313v4h5.313v1.313h-1.313v2.656h-1.344v-2.656h-2.656v2.656h-1.313v-3.969zM4 13.563v1.313h-2.656v-1.313h2.656zM17.281 14.875h-1.344v-2.656h2.656v1.344h-1.313v1.313zM18.594 14.875v-1.313h1.344v6.625h-1.344v-5.313zM0 14.875h1.344v2.656h-1.344v-2.656zM5.313 17.531v-1.313h-1.313v-1.344h1.313v-7.969h1.344v10.625h-1.344zM1.344 18.875v-1.344h1.313v1.344h-1.313zM9.313 20.188v-2.656h1.313v5.313h-1.313v-2.656zM11.969 20.188v-2.656h1.313v5.313h-1.313v-2.656zM2.656 18.875h1.344v2.656h-1.344v-2.656zM15.938 18.875v3.969h-1.313v-5.313h1.313v1.344zM17.281 22.844v-2.656h1.313v2.656h-1.313zM4 22.844v-1.313h1.313v1.313h-1.313zM5.313 24.188v-1.344h1.344v1.344h-1.344zM15.938 25.531v-2.688h1.344v4h-2.656v-1.313h1.313zM13.281 25.531v-1.344h1.344v1.344h-1.344zM9.313 25.531h3.969v1.313h-6.625v-2.656h1.313v1.344h1.344z"></path>
</svg>